<svg width="1122" height="648" viewBox="0 0 1122 648" fill="none" xmlns="http://www.w3.org/2000/svg">
<g clip-path="url(#clip0_236_359)">
<path d="M-19.3027 813.009L1140.98 813.004L1140.92 -18.392L24.1869 -18.4858H-19.3027" fill="#131126"/>
<mask id="mask0_236_359" style="mask-type:luminance" maskUnits="userSpaceOnUse" x="367" y="0" width="29" height="116">
<path d="M367.593 115.447V0.404861H395.593V115.447H367.593Z" fill="white"/>
</mask>
<g mask="url(#mask0_236_359)">
<path d="M368.39 114.978H395.119V-18.4545L368.39 -18.4597V114.978Z" fill="#48388D"/>
</g>
<mask id="mask1_236_359" style="mask-type:luminance" maskUnits="userSpaceOnUse" x="342" y="0" width="29" height="88">
<path d="M342.26 87.4465V0.404861H370.26V87.4465H342.26Z" fill="white"/>
</mask>
<g mask="url(#mask1_236_359)">
<path d="M369.343 87.4258V-8.58464H342.609V87.4258H369.343Z" fill="#48388D"/>
</g>
<path d="M464.671 64.4258V34.7539H437.942V64.4258H464.671Z" fill="#48388D"/>
<mask id="mask2_236_359" style="mask-type:luminance" maskUnits="userSpaceOnUse" x="459" y="0" width="29" height="39">
<path d="M459.593 38.1133V0.404945H487.593V38.1133H459.593Z" fill="white"/>
</mask>
<g mask="url(#mask2_236_359)">
<path d="M460.609 36.9673H487.338V-18.4494H460.609V36.9673Z" fill="#48388D"/>
</g>
<path d="M713.359 87.1653V60.4361L606.583 60.4361V87.1653H713.359Z" fill="#00A67F"/>
<path d="M573.921 56.9465V30.2122H547.26V56.9465H573.921Z" stroke="#00A67F" stroke-width="2.66667" stroke-miterlimit="10" stroke-linecap="round" stroke-linejoin="round"/>
<path d="M823.307 63.9153V36.5767H797.609V63.9153H823.307Z" fill="#BD73AD"/>
<path d="M877.359 63.9153V36.5767H851.661V63.9153H877.359Z" fill="#48388D"/>
<mask id="mask3_236_359" style="mask-type:luminance" maskUnits="userSpaceOnUse" x="678" y="0" width="5" height="101">
<path d="M678.26 100.78V0.404785H682.26V100.78H678.26Z" fill="white"/>
</mask>
<g mask="url(#mask3_236_359)">
<path d="M680.702 99.0818V-55.288" stroke="white" stroke-width="2.66667" stroke-miterlimit="10" stroke-linecap="round" stroke-linejoin="round"/>
</g>
<mask id="mask4_236_359" style="mask-type:luminance" maskUnits="userSpaceOnUse" x="655" y="0" width="5" height="23">
<path d="M655.593 22.1133V0.404947H659.593V22.1133H655.593Z" fill="white"/>
</mask>
<g mask="url(#mask4_236_359)">
<path d="M657.921 20.7539V-63.6211" stroke="white" stroke-width="2.66667" stroke-miterlimit="10" stroke-linecap="round" stroke-linejoin="round" stroke-dasharray="4 10.67"/>
</g>
<mask id="mask5_236_359" style="mask-type:luminance" maskUnits="userSpaceOnUse" x="-1" y="0" width="133" height="221">
<path d="M-0.40686 220.78L-0.40686 0.404785H131.593V220.78H-0.40686Z" fill="white"/>
</mask>
<g mask="url(#mask5_236_359)">
<path d="M-19.3027 220.077H131.395L131.395 -18.4754L24.1869 -18.4858H-19.3027" fill="#48388D"/>
</g>
<path d="M84.9525 352.52V194.259H38.9525L38.9525 352.52H84.9525Z" fill="#00A67F"/>
<path d="M59.2546 458.191L59.2546 302.191H-31.4121L-31.4121 458.191H59.2546Z" stroke="white" stroke-width="2.66667" stroke-miterlimit="10"/>
<path d="M223.255 123.525V32.858L40.1191 32.858L40.1191 123.525L223.255 123.525Z" fill="#2CB685"/>
<path d="M60.5827 813.009L60.5827 556.728H-19.3027L-19.3027 813.009H60.5827Z" fill="#BD73AD"/>
<path d="M89 549.115V547.115" stroke="white" stroke-width="2.66667" stroke-linecap="round" stroke-linejoin="round"/>
<path d="M89 536.49L89 410.313" stroke="white" stroke-width="2.66667" stroke-linecap="round" stroke-linejoin="round" stroke-dasharray="3.98 10.63"/>
<path d="M89 405V403" stroke="white" stroke-width="2.66667" stroke-linecap="round" stroke-linejoin="round"/>
<path d="M917.921 132.191V47.9258" stroke="white" stroke-width="2.66667" stroke-miterlimit="10" stroke-linecap="round" stroke-linejoin="round"/>
<mask id="mask6_236_359" style="mask-type:luminance" maskUnits="userSpaceOnUse" x="942" y="0" width="5" height="112">
<path d="M942.26 111.447V0.404861H946.26V111.447H942.26Z" fill="white"/>
</mask>
<g mask="url(#mask6_236_359)">
<path d="M944.588 109.082V-75.6159" stroke="#48388D" stroke-width="2.66667" stroke-miterlimit="10" stroke-linecap="round" stroke-linejoin="round"/>
</g>
<path d="M1090.02 400.072V310.077" stroke="#00A67F" stroke-width="2.66667" stroke-miterlimit="10" stroke-linecap="round" stroke-linejoin="round" stroke-dasharray="4 10.67"/>
<path d="M1066.02 462.191V386.191" stroke="white" stroke-width="2.66667" stroke-miterlimit="10" stroke-linecap="round" stroke-linejoin="round" stroke-dasharray="4 10.67"/>
<path d="M1050.34 375.087V279.082H1023.61V375.087H1050.34Z" fill="#48388D"/>
<path d="M1023.56 410.426V314.415H996.833V410.426H1023.56Z" fill="#BD73AD"/>
<path d="M1023.56 540.415V444.405H996.833V540.415H1023.56Z" stroke="#BD73AD" stroke-width="2.66667" stroke-miterlimit="10" stroke-linecap="round" stroke-linejoin="round"/>
<path d="M1049.83 240.743V213.41H1024.12V240.743H1049.83Z" fill="#48388D"/>
<path d="M1056.68 723.348V580.728H1006.68V723.348H1056.68Z" fill="#00A67F"/>
<mask id="mask7_236_359" style="mask-type:luminance" maskUnits="userSpaceOnUse" x="1087" y="0" width="36" height="241">
<path d="M1087.59 240.78V0.404785H1122.11V240.78H1087.59Z" fill="white"/>
</mask>
<g mask="url(#mask7_236_359)">
<path d="M1088.68 240.743H1140.94L1140.92 -18.3923L1088.68 -18.3975V240.743Z" fill="#48388D"/>
</g>
<mask id="mask8_236_359" style="mask-type:luminance" maskUnits="userSpaceOnUse" x="1063" y="0" width="60" height="217">
<path d="M1063.59 216.78V0.404785H1122.11V216.78H1063.59Z" fill="white"/>
</mask>
<g mask="url(#mask8_236_359)">
<path d="M1064.68 216.743H1140.94L1140.92 -18.3923L1064.68 -18.3975V216.743Z" fill="#2CB685"/>
</g>
<path d="M1092.08 171.181V144.978H1003.95V171.181H1092.08Z" fill="#00B0CE"/>
</g>
<defs>
<clipPath id="clip0_236_359">
<rect width="648" height="1122" fill="white" transform="matrix(0 -1 1 0 0 648)"/>
</clipPath>
</defs>
</svg>
