<svg width="61" height="59" viewBox="0 0 61 59" fill="none" xmlns="http://www.w3.org/2000/svg">
<g filter="url(#filter0_f_237_360)">
<path d="M30.5 48C41.2696 48 50 39.7173 50 29.5C50 19.2827 41.2696 11 30.5 11C19.7304 11 11 19.2827 11 29.5C11 39.7173 19.7304 48 30.5 48Z" fill="url(#paint0_linear_237_360)"/>
</g>
<g filter="url(#filter1_d_237_360)">
<path d="M29.7967 15.9115C30.1215 15.7212 30.49 15.6211 30.8651 15.6211C31.2402 15.6211 31.6086 15.7212 31.9335 15.9115L41.6398 21.5956C41.9646 21.7858 42.2344 22.0594 42.4219 22.3889C42.6094 22.7184 42.7082 23.0921 42.7082 23.4725V34.8408C42.7082 35.2213 42.6094 35.595 42.4219 35.9245C42.2344 36.254 41.9646 36.5275 41.6398 36.7178L31.9335 42.4019C31.6086 42.5921 31.2402 42.6923 30.8651 42.6923C30.49 42.6923 30.1215 42.5921 29.7967 42.4019L20.0904 36.7178C19.7655 36.5275 19.4958 36.254 19.3082 35.9245C19.1207 35.595 19.022 35.2213 19.022 34.8408V23.4725C19.022 23.0921 19.1207 22.7184 19.3082 22.3889C19.4958 22.0594 19.7655 21.7858 20.0904 21.5956" fill="#1B1B1B"/>
</g>
<path d="M29.9175 16.2896C30.2466 16.0999 30.62 16 31 16C31.38 16 31.7534 16.0999 32.0825 16.2896L41.9175 21.9588C42.2466 22.1485 42.5199 22.4214 42.7099 22.75C42.9 23.0786 43 23.4514 43 23.8308V35.1692C43 35.5486 42.9 35.9214 42.7099 36.25C42.5199 36.5786 42.2466 36.8515 41.9175 37.0412L32.0825 42.7104C31.7534 42.9001 31.38 43 31 43C30.62 43 30.2466 42.9001 29.9175 42.7104L20.0825 37.0412C19.7534 36.8515 19.4801 36.5786 19.2901 36.25C19.1 35.9214 19 35.5486 19 35.1692V23.8308C19 23.4514 19.1 23.0786 19.2901 22.75C19.4801 22.4214 19.7534 22.1485 20.0825 21.9588" fill="#1B1B1B"/>
<path fill-rule="evenodd" clip-rule="evenodd" d="M25.7348 35.7854C25.7884 35.8147 25.8437 35.8417 25.9007 35.8666C26.1466 35.971 26.4054 36.0233 26.6771 36.0233H34.2281C34.4998 36.0233 34.7554 35.971 34.9948 35.8666C35.2407 35.7621 35.4542 35.6185 35.6354 35.4357C35.8165 35.2529 35.9589 35.0408 36.0624 34.7992C36.1659 34.5512 36.2177 34.2901 36.2177 34.0159V32.2141H34.2281V34.0159H27.155L25.7348 35.7854ZM33.5377 23.9888H26.6771V32.5364L24.8491 34.8139C24.847 34.809 24.8449 34.8041 24.8428 34.7992C24.7393 34.5512 24.6875 34.2901 24.6875 34.0159V23.9888C24.6875 23.7146 24.7393 23.4568 24.8428 23.2152C24.9463 22.9672 25.0887 22.755 25.2698 22.5788C25.451 22.396 25.6613 22.2524 25.9007 22.1479C26.1466 22.0369 26.4054 21.9814 26.6771 21.9814H34.2281C34.4998 21.9814 34.7554 22.0369 34.9948 22.1479C34.9999 22.1501 35.0049 22.1522 35.01 22.1544L33.5377 23.9888ZM34.2281 25.2036V25.8003H36.2177V23.9888C36.2177 23.7146 36.1659 23.4568 36.0624 23.2152C36.0355 23.1507 36.0059 23.0885 35.9736 23.0288L34.2281 25.2036Z" fill="white"/>
<path d="M32.5713 21.1166L32.5169 21.2691C32.4714 21.2529 32.4217 21.2694 32.3948 21.3108C32.3948 21.3108 32.3948 21.3108 32.3948 21.3108L26.1503 30.9294L26.1502 30.9295C26.1264 30.9661 26.1268 31.0128 26.1506 31.0485L26.1508 31.0488C26.1741 31.0838 26.2153 31.1016 26.2575 31.0938C26.2576 31.0938 26.2577 31.0938 26.2578 31.0937L29.5461 30.4544L29.7603 30.4127L29.738 30.6298L29.0701 37.1314L29.0701 37.1314C29.0649 37.1822 29.0943 37.2274 29.1394 37.2435L32.5713 21.1166ZM32.5713 21.1166L32.5166 21.269C32.5621 21.2853 32.5913 21.3308 32.5861 21.3809L32.5861 21.381L31.9183 27.8827L31.896 28.0998L32.1102 28.0582L35.3992 27.4188L35.3997 27.4187M32.5713 21.1166L35.3997 27.4187M26.0145 30.8413C25.9556 30.9319 25.9561 31.0486 26.0159 31.1383C26.0752 31.2276 26.1816 31.2728 26.2877 31.2528L26.0145 30.8413ZM26.0145 30.8413L26.0145 30.8413L26.0145 30.8413ZM35.3997 27.4187C35.4398 27.4108 35.4811 27.4273 35.5054 27.4638L35.6401 27.3741L35.5052 27.4636C35.5293 27.4998 35.5295 27.5467 35.5058 27.5831L35.5058 27.5832M35.3997 27.4187L35.5058 27.5832M35.5058 27.5832L29.2614 37.2014C29.2614 37.2015 29.2614 37.2015 29.2613 37.2016L35.5058 27.5832Z" fill="#D89F00" stroke="#FF8A00" stroke-width="0.323725"/>
<defs>
<filter id="filter0_f_237_360" x="0.600009" y="0.600009" width="59.8" height="57.8" filterUnits="userSpaceOnUse" color-interpolation-filters="sRGB">
<feFlood flood-opacity="0" result="BackgroundImageFix"/>
<feBlend mode="normal" in="SourceGraphic" in2="BackgroundImageFix" result="shape"/>
<feGaussianBlur stdDeviation="5.2" result="effect1_foregroundBlur_237_360"/>
</filter>
<filter id="filter1_d_237_360" x="12.652" y="9.2511" width="36.6863" height="40.0713" filterUnits="userSpaceOnUse" color-interpolation-filters="sRGB">
<feFlood flood-opacity="0" result="BackgroundImageFix"/>
<feColorMatrix in="SourceAlpha" type="matrix" values="0 0 0 0 0 0 0 0 0 0 0 0 0 0 0 0 0 0 127 0" result="hardAlpha"/>
<feOffset dx="0.13" dy="0.13"/>
<feGaussianBlur stdDeviation="3.25"/>
<feComposite in2="hardAlpha" operator="out"/>
<feColorMatrix type="matrix" values="0 0 0 0 0 0 0 0 0 0 0 0 0 0 0 0 0 0 1 0"/>
<feBlend mode="normal" in2="BackgroundImageFix" result="effect1_dropShadow_237_360"/>
<feBlend mode="normal" in="SourceGraphic" in2="effect1_dropShadow_237_360" result="shape"/>
</filter>
<linearGradient id="paint0_linear_237_360" x1="11" y1="11" x2="50.8184" y2="47.0972" gradientUnits="userSpaceOnUse">
<stop stop-color="#41C8FF"/>
<stop offset="1" stop-color="#BD34FE"/>
</linearGradient>
</defs>
</svg>
