<svg width="108" height="108" viewBox="0 0 108 108" fill="none" xmlns="http://www.w3.org/2000/svg">
<circle cx="54" cy="54" r="54" fill="#D9D9D9"/>
<path d="M25.0591 53H24.1784C24.1264 52.7467 24.0352 52.5241 23.905 52.3324C23.7772 52.1406 23.6209 51.9796 23.4363 51.8494C23.254 51.7169 23.0516 51.6174 22.829 51.5511C22.6065 51.4848 22.3745 51.4517 22.133 51.4517C21.6926 51.4517 21.2937 51.563 20.9363 51.7855C20.5811 52.008 20.2982 52.3359 20.0875 52.7692C19.8792 53.2024 19.775 53.7339 19.775 54.3636C19.775 54.9934 19.8792 55.5249 20.0875 55.9581C20.2982 56.3913 20.5811 56.7192 20.9363 56.9418C21.2937 57.1643 21.6926 57.2756 22.133 57.2756C22.3745 57.2756 22.6065 57.2424 22.829 57.1761C23.0516 57.1098 23.254 57.0116 23.4363 56.8814C23.6209 56.7488 23.7772 56.5866 23.905 56.3949C24.0352 56.2008 24.1264 55.9782 24.1784 55.7273H25.0591C24.9928 56.099 24.8721 56.4316 24.6969 56.7251C24.5217 57.0187 24.3039 57.2685 24.0435 57.4744C23.7831 57.678 23.4907 57.8331 23.1664 57.9396C22.8444 58.0462 22.4999 58.0994 22.133 58.0994C21.5127 58.0994 20.9611 57.9479 20.4782 57.6449C19.9952 57.3419 19.6152 56.911 19.3382 56.3523C19.0613 55.7936 18.9228 55.1307 18.9228 54.3636C18.9228 53.5966 19.0613 52.9337 19.3382 52.375C19.6152 51.8163 19.9952 51.3854 20.4782 51.0824C20.9611 50.7794 21.5127 50.6278 22.133 50.6278C22.4999 50.6278 22.8444 50.6811 23.1664 50.7876C23.4907 50.8942 23.7831 51.0504 24.0435 51.2564C24.3039 51.46 24.5217 51.7086 24.6969 52.0021C24.8721 52.2933 24.9928 52.6259 25.0591 53ZM28.5845 58.1136C28.0921 58.1136 27.66 57.9964 27.2884 57.7621C26.919 57.5277 26.6302 57.1998 26.4219 56.7784C26.2159 56.357 26.1129 55.8646 26.1129 55.3011C26.1129 54.733 26.2159 54.237 26.4219 53.8132C26.6302 53.3894 26.919 53.0604 27.2884 52.826C27.66 52.5916 28.0921 52.4744 28.5845 52.4744C29.0769 52.4744 29.5078 52.5916 29.8771 52.826C30.2488 53.0604 30.5376 53.3894 30.7436 53.8132C30.9519 54.237 31.0561 54.733 31.0561 55.3011C31.0561 55.8646 30.9519 56.357 30.7436 56.7784C30.5376 57.1998 30.2488 57.5277 29.8771 57.7621C29.5078 57.9964 29.0769 58.1136 28.5845 58.1136ZM28.5845 57.3608C28.9586 57.3608 29.2663 57.2649 29.5078 57.0732C29.7493 56.8814 29.928 56.6293 30.044 56.3168C30.16 56.0043 30.218 55.6657 30.218 55.3011C30.218 54.9366 30.16 54.5968 30.044 54.282C29.928 53.9671 29.7493 53.7126 29.5078 53.5185C29.2663 53.3243 28.9586 53.2273 28.5845 53.2273C28.2105 53.2273 27.9027 53.3243 27.6612 53.5185C27.4197 53.7126 27.241 53.9671 27.125 54.282C27.009 54.5968 26.951 54.9366 26.951 55.3011C26.951 55.6657 27.009 56.0043 27.125 56.3168C27.241 56.6293 27.4197 56.8814 27.6612 57.0732C27.9027 57.2649 28.2105 57.3608 28.5845 57.3608ZM32.3354 58V52.5455H33.1451V53.3977H33.2161C33.3297 53.1065 33.5132 52.8804 33.7665 52.7195C34.0198 52.5561 34.324 52.4744 34.6792 52.4744C35.039 52.4744 35.3385 52.5561 35.5776 52.7195C35.8191 52.8804 36.0073 53.1065 36.1422 53.3977H36.199C36.3387 53.116 36.5482 52.8923 36.8276 52.7266C37.1069 52.5585 37.4419 52.4744 37.8326 52.4744C38.3203 52.4744 38.7192 52.6271 39.0293 52.9325C39.3394 53.2356 39.4945 53.7079 39.4945 54.3494V58H38.6564V54.3494C38.6564 53.947 38.5463 53.6593 38.3262 53.4865C38.106 53.3137 37.8468 53.2273 37.5485 53.2273C37.165 53.2273 36.8678 53.3433 36.6571 53.5753C36.4464 53.8049 36.3411 54.0961 36.3411 54.4489V58H35.4888V54.2642C35.4888 53.9541 35.3882 53.7043 35.187 53.5149C34.9857 53.3232 34.7265 53.2273 34.4093 53.2273C34.1915 53.2273 33.9879 53.2853 33.7985 53.4013C33.6114 53.5173 33.4599 53.6783 33.3439 53.8842C33.2303 54.0878 33.1735 54.3234 33.1735 54.5909V58H32.3354ZM41.0268 60.0455V52.5455H41.8365V53.4119H41.9359C41.9975 53.3172 42.0827 53.1965 42.1916 53.0497C42.3029 52.9006 42.4615 52.768 42.6674 52.652C42.8758 52.5336 43.1575 52.4744 43.5126 52.4744C43.9719 52.4744 44.3767 52.5893 44.7271 52.8189C45.0775 53.0485 45.3509 53.3741 45.5474 53.7955C45.7439 54.2169 45.8422 54.714 45.8422 55.2869C45.8422 55.8646 45.7439 56.3653 45.5474 56.7891C45.3509 57.2105 45.0787 57.5372 44.7306 57.7692C44.3826 57.9988 43.9814 58.1136 43.5268 58.1136C43.1764 58.1136 42.8959 58.0556 42.6852 57.9396C42.4745 57.8213 42.3123 57.6875 42.1987 57.5384C42.085 57.3868 41.9975 57.2614 41.9359 57.1619H41.8649V60.0455H41.0268ZM41.8507 55.2727C41.8507 55.6847 41.911 56.0481 42.0318 56.3629C42.1525 56.6754 42.3289 56.9205 42.5609 57.098C42.7929 57.2732 43.077 57.3608 43.4132 57.3608C43.7636 57.3608 44.0559 57.2685 44.2903 57.0838C44.527 56.8968 44.7046 56.6458 44.823 56.331C44.9437 56.0137 45.0041 55.661 45.0041 55.2727C45.0041 54.8892 44.9449 54.5436 44.8265 54.2358C44.7105 53.9257 44.5342 53.6806 44.2974 53.5007C44.063 53.3184 43.7683 53.2273 43.4132 53.2273C43.0723 53.2273 42.7858 53.3137 42.5538 53.4865C42.3218 53.657 42.1466 53.8961 42.0282 54.2038C41.9099 54.5092 41.8507 54.8655 41.8507 55.2727ZM48.7257 58.1278C48.38 58.1278 48.0663 58.0627 47.7846 57.9325C47.5029 57.8 47.2792 57.6094 47.1135 57.3608C46.9477 57.1098 46.8649 56.8068 46.8649 56.4517C46.8649 56.1392 46.9264 55.8859 47.0495 55.6918C47.1726 55.4953 47.3372 55.3414 47.5431 55.2301C47.7491 55.1188 47.9764 55.036 48.225 54.9815C48.4759 54.9247 48.728 54.8797 48.9814 54.8466C49.3128 54.804 49.5815 54.772 49.7875 54.7507C49.9958 54.727 50.1473 54.688 50.242 54.6335C50.3391 54.5791 50.3876 54.4844 50.3876 54.3494V54.321C50.3876 53.9706 50.2917 53.6984 50.1 53.5043C49.9106 53.3101 49.6229 53.2131 49.237 53.2131C48.8369 53.2131 48.5233 53.3007 48.296 53.4759C48.0687 53.651 47.9089 53.8381 47.8166 54.0369L47.0211 53.7528C47.1632 53.4214 47.3526 53.1634 47.5893 52.9787C47.8284 52.7917 48.0888 52.6615 48.3706 52.5881C48.6547 52.5123 48.934 52.4744 49.2086 52.4744C49.3838 52.4744 49.585 52.4957 49.8123 52.5384C50.042 52.5786 50.2633 52.6626 50.4764 52.7905C50.6918 52.9183 50.8706 53.1113 51.0126 53.3693C51.1547 53.6274 51.2257 53.973 51.2257 54.4062V58H50.3876V57.2614H50.345C50.2882 57.3797 50.1935 57.5064 50.0609 57.6413C49.9283 57.7763 49.752 57.8911 49.5318 57.9858C49.3116 58.0805 49.0429 58.1278 48.7257 58.1278ZM48.8535 57.375C49.185 57.375 49.4643 57.3099 49.6916 57.1797C49.9212 57.0495 50.094 56.8814 50.21 56.6754C50.3284 56.4695 50.3876 56.2528 50.3876 56.0256V55.2585C50.3521 55.3011 50.274 55.3402 50.1532 55.3757C50.0349 55.4089 49.8975 55.4384 49.7413 55.4645C49.5874 55.4882 49.4371 55.5095 49.2903 55.5284C49.1459 55.545 49.0287 55.5592 48.9387 55.571C48.7209 55.5994 48.5173 55.6456 48.3279 55.7095C48.1409 55.7711 47.9894 55.8646 47.8734 55.9901C47.7598 56.1132 47.7029 56.2812 47.7029 56.4943C47.7029 56.7855 47.8107 57.0057 48.0261 57.1548C48.2439 57.3016 48.5197 57.375 48.8535 57.375ZM53.5934 54.7188V58H52.7553V52.5455H53.565V53.3977H53.636C53.7638 53.1207 53.958 52.8982 54.2184 52.7301C54.4788 52.5597 54.815 52.4744 55.2269 52.4744C55.5962 52.4744 55.9194 52.5502 56.1964 52.7017C56.4734 52.8509 56.6888 53.0781 56.8427 53.3835C56.9966 53.6866 57.0735 54.0701 57.0735 54.5341V58H56.2354V54.5909C56.2354 54.1624 56.1242 53.8286 55.9016 53.5895C55.6791 53.348 55.3737 53.2273 54.9854 53.2273C54.7179 53.2273 54.4788 53.2853 54.2681 53.4013C54.0598 53.5173 53.8952 53.6866 53.7745 53.9091C53.6538 54.1316 53.5934 54.4015 53.5934 54.7188ZM58.9494 60.0455C58.8074 60.0455 58.6807 60.0336 58.5694 60.0099C58.4582 59.9886 58.3812 59.9673 58.3386 59.946L58.5517 59.2074C58.7553 59.2595 58.9352 59.2784 59.0914 59.2642C59.2477 59.25 59.3862 59.1802 59.5069 59.0547C59.63 58.9316 59.7425 58.7315 59.8443 58.4545L60.0005 58.0284L57.9835 52.5455H58.8926L60.3983 56.892H60.4551L61.9608 52.5455H62.8699L60.5545 58.7955C60.4503 59.0772 60.3213 59.3104 60.1674 59.495C60.0136 59.6821 59.8348 59.8205 59.6312 59.9105C59.43 60.0005 59.2027 60.0455 58.9494 60.0455ZM66.9022 58V50.7273H67.7828V57.2188H71.1635V58H66.9022ZM74.6294 58.1136C74.137 58.1136 73.705 57.9964 73.3333 57.7621C72.964 57.5277 72.6751 57.1998 72.4668 56.7784C72.2608 56.357 72.1578 55.8646 72.1578 55.3011C72.1578 54.733 72.2608 54.237 72.4668 53.8132C72.6751 53.3894 72.964 53.0604 73.3333 52.826C73.705 52.5916 74.137 52.4744 74.6294 52.4744C75.1219 52.4744 75.5527 52.5916 75.9221 52.826C76.2937 53.0604 76.5826 53.3894 76.7885 53.8132C76.9969 54.237 77.101 54.733 77.101 55.3011C77.101 55.8646 76.9969 56.357 76.7885 56.7784C76.5826 57.1998 76.2937 57.5277 75.9221 57.7621C75.5527 57.9964 75.1219 58.1136 74.6294 58.1136ZM74.6294 57.3608C75.0035 57.3608 75.3113 57.2649 75.5527 57.0732C75.7942 56.8814 75.973 56.6293 76.089 56.3168C76.205 56.0043 76.263 55.6657 76.263 55.3011C76.263 54.9366 76.205 54.5968 76.089 54.282C75.973 53.9671 75.7942 53.7126 75.5527 53.5185C75.3113 53.3243 75.0035 53.2273 74.6294 53.2273C74.2554 53.2273 73.9476 53.3243 73.7061 53.5185C73.4647 53.7126 73.2859 53.9671 73.1699 54.282C73.0539 54.5968 72.9959 54.9366 72.9959 55.3011C72.9959 55.6657 73.0539 56.0043 73.1699 56.3168C73.2859 56.6293 73.4647 56.8814 73.7061 57.0732C73.9476 57.2649 74.2554 57.3608 74.6294 57.3608ZM80.582 60.1591C80.1772 60.1591 79.8292 60.107 79.538 60.0028C79.2468 59.901 79.0041 59.7661 78.81 59.598C78.6183 59.4323 78.4656 59.2547 78.3519 59.0653L79.0195 58.5966C79.0953 58.696 79.1912 58.8097 79.3072 58.9375C79.4232 59.0677 79.5818 59.1802 79.783 59.2749C79.9866 59.3719 80.253 59.4205 80.582 59.4205C81.0224 59.4205 81.3858 59.3139 81.6722 59.1009C81.9587 58.8878 82.1019 58.554 82.1019 58.0994V56.9915H82.0309C81.9693 57.0909 81.8817 57.214 81.7681 57.3608C81.6568 57.5052 81.4959 57.6342 81.2852 57.7479C81.0768 57.8591 80.7951 57.9148 80.44 57.9148C79.9996 57.9148 79.6043 57.8106 79.2539 57.6023C78.9059 57.3939 78.6301 57.0909 78.4265 56.6932C78.2253 56.2955 78.1246 55.8125 78.1246 55.2443C78.1246 54.6856 78.2229 54.1991 78.4194 53.7848C78.6159 53.3681 78.8893 53.0462 79.2397 52.8189C79.5901 52.5893 79.9949 52.4744 80.4542 52.4744C80.8093 52.4744 81.091 52.5336 81.2994 52.652C81.5101 52.768 81.671 52.9006 81.7823 53.0497C81.896 53.1965 81.9835 53.3172 82.0451 53.4119H82.1303V52.5455H82.94V58.1562C82.94 58.625 82.8335 59.0062 82.6204 59.2997C82.4097 59.5956 82.1256 59.8123 81.7681 59.9496C81.413 60.0893 81.0176 60.1591 80.582 60.1591ZM80.5536 57.1619C80.8898 57.1619 81.1739 57.085 81.4059 56.9311C81.6379 56.7772 81.8143 56.5559 81.935 56.267C82.0558 55.9782 82.1161 55.6326 82.1161 55.2301C82.1161 54.8371 82.0569 54.4903 81.9386 54.1896C81.8202 53.889 81.645 53.6534 81.413 53.483C81.181 53.3125 80.8945 53.2273 80.5536 53.2273C80.1985 53.2273 79.9026 53.3172 79.6658 53.4972C79.4315 53.6771 79.2551 53.9186 79.1367 54.2216C79.0207 54.5246 78.9627 54.8608 78.9627 55.2301C78.9627 55.6089 79.0219 55.9439 79.1403 56.2351C79.261 56.5239 79.4386 56.7512 79.6729 56.9169C79.9097 57.0803 80.2032 57.1619 80.5536 57.1619ZM86.69 58.1136C86.1976 58.1136 85.7655 57.9964 85.3938 57.7621C85.0245 57.5277 84.7357 57.1998 84.5273 56.7784C84.3214 56.357 84.2184 55.8646 84.2184 55.3011C84.2184 54.733 84.3214 54.237 84.5273 53.8132C84.7357 53.3894 85.0245 53.0604 85.3938 52.826C85.7655 52.5916 86.1976 52.4744 86.69 52.4744C87.1824 52.4744 87.6133 52.5916 87.9826 52.826C88.3543 53.0604 88.6431 53.3894 88.8491 53.8132C89.0574 54.237 89.1616 54.733 89.1616 55.3011C89.1616 55.8646 89.0574 56.357 88.8491 56.7784C88.6431 57.1998 88.3543 57.5277 87.9826 57.7621C87.6133 57.9964 87.1824 58.1136 86.69 58.1136ZM86.69 57.3608C87.064 57.3608 87.3718 57.2649 87.6133 57.0732C87.8548 56.8814 88.0335 56.6293 88.1495 56.3168C88.2655 56.0043 88.3235 55.6657 88.3235 55.3011C88.3235 54.9366 88.2655 54.5968 88.1495 54.282C88.0335 53.9671 87.8548 53.7126 87.6133 53.5185C87.3718 53.3243 87.064 53.2273 86.69 53.2273C86.3159 53.2273 86.0082 53.3243 85.7667 53.5185C85.5252 53.7126 85.3465 53.9671 85.2305 54.282C85.1145 54.5968 85.0565 54.9366 85.0565 55.3011C85.0565 55.6657 85.1145 56.0043 85.2305 56.3168C85.3465 56.6293 85.5252 56.8814 85.7667 57.0732C86.0082 57.2649 86.3159 57.3608 86.69 57.3608Z" fill="black"/>
</svg>
