<svg width="108" height="108" viewBox="0 0 108 108" fill="none" xmlns="http://www.w3.org/2000/svg">
<rect width="108" height="108" rx="15" fill="#D9D9D9"/>
<path d="M25.5374 50.7273L27.6965 56.8494H27.7817L29.9408 50.7273H30.8641L28.1936 58H27.2845L24.6141 50.7273H25.5374ZM33.6624 58.1136C33.1368 58.1136 32.6834 57.9976 32.3023 57.7656C31.9235 57.5312 31.6311 57.2045 31.4252 56.7855C31.2216 56.3641 31.1198 55.8741 31.1198 55.3153C31.1198 54.7566 31.2216 54.2642 31.4252 53.8381C31.6311 53.4096 31.9176 53.0758 32.2845 52.8366C32.6539 52.5952 33.0847 52.4744 33.5771 52.4744C33.8612 52.4744 34.1418 52.5218 34.4188 52.6165C34.6958 52.7112 34.9479 52.8651 35.1752 53.0781C35.4024 53.2888 35.5835 53.5682 35.7185 53.9162C35.8534 54.2642 35.9209 54.6927 35.9209 55.2017V55.5568H31.7164V54.8324H35.0686C35.0686 54.5246 35.0071 54.25 34.884 54.0085C34.7632 53.767 34.5904 53.5765 34.3655 53.4368C34.143 53.2971 33.8802 53.2273 33.5771 53.2273C33.2433 53.2273 32.9545 53.3101 32.7107 53.4759C32.4692 53.6392 32.2834 53.8523 32.1531 54.1151C32.0229 54.3778 31.9578 54.6596 31.9578 54.9602V55.4432C31.9578 55.8551 32.0289 56.2043 32.1709 56.4908C32.3153 56.7749 32.5154 56.9915 32.771 57.1406C33.0267 57.2874 33.3238 57.3608 33.6624 57.3608C33.8825 57.3608 34.0814 57.33 34.259 57.2685C34.4389 57.2045 34.594 57.1098 34.7242 56.9844C34.8544 56.8565 34.955 56.6979 35.026 56.5085L35.8357 56.7358C35.7504 57.0104 35.6072 57.2519 35.406 57.4602C35.2048 57.6662 34.9562 57.8272 34.6602 57.9432C34.3643 58.0568 34.0317 58.1136 33.6624 58.1136ZM38.0338 54.7188V58H37.1958V52.5455H38.0054V53.3977H38.0764C38.2043 53.1207 38.3984 52.8982 38.6588 52.7301C38.9192 52.5597 39.2554 52.4744 39.6673 52.4744C40.0367 52.4744 40.3598 52.5502 40.6368 52.7017C40.9138 52.8509 41.1292 53.0781 41.2831 53.3835C41.437 53.6866 41.5139 54.0701 41.5139 54.5341V58H40.6759V54.5909C40.6759 54.1624 40.5646 53.8286 40.3421 53.5895C40.1195 53.348 39.8141 53.2273 39.4259 53.2273C39.1584 53.2273 38.9192 53.2853 38.7085 53.4013C38.5002 53.5173 38.3357 53.6866 38.2149 53.9091C38.0942 54.1316 38.0338 54.4015 38.0338 54.7188ZM45.105 58.1136C44.6505 58.1136 44.2492 57.9988 43.9012 57.7692C43.5532 57.5372 43.2809 57.2105 43.0844 56.7891C42.8879 56.3653 42.7897 55.8646 42.7897 55.2869C42.7897 54.714 42.8879 54.2169 43.0844 53.7955C43.2809 53.3741 43.5544 53.0485 43.9047 52.8189C44.2551 52.5893 44.6599 52.4744 45.1192 52.4744C45.4743 52.4744 45.7549 52.5336 45.9608 52.652C46.1692 52.768 46.3278 52.9006 46.4367 53.0497C46.548 53.1965 46.6344 53.3172 46.6959 53.4119H46.767V50.7273H47.605V58H46.7954V57.1619H46.6959C46.6344 57.2614 46.5468 57.3868 46.4331 57.5384C46.3195 57.6875 46.1573 57.8213 45.9466 57.9396C45.7359 58.0556 45.4554 58.1136 45.105 58.1136ZM45.2187 57.3608C45.5548 57.3608 45.8389 57.2732 46.0709 57.098C46.3029 56.9205 46.4793 56.6754 46.6001 56.3629C46.7208 56.0481 46.7812 55.6847 46.7812 55.2727C46.7812 54.8655 46.722 54.5092 46.6036 54.2038C46.4852 53.8961 46.31 53.657 46.078 53.4865C45.846 53.3137 45.5596 53.2273 45.2187 53.2273C44.8635 53.2273 44.5676 53.3184 44.3309 53.5007C44.0965 53.6806 43.9201 53.9257 43.8018 54.2358C43.6858 54.5436 43.6278 54.8892 43.6278 55.2727C43.6278 55.661 43.6869 56.0137 43.8053 56.331C43.926 56.6458 44.1036 56.8968 44.338 57.0838C44.5747 57.2685 44.8683 57.3608 45.2187 57.3608ZM51.4722 58.1136C50.9798 58.1136 50.5477 57.9964 50.176 57.7621C49.8067 57.5277 49.5179 57.1998 49.3096 56.7784C49.1036 56.357 49.0006 55.8646 49.0006 55.3011C49.0006 54.733 49.1036 54.237 49.3096 53.8132C49.5179 53.3894 49.8067 53.0604 50.176 52.826C50.5477 52.5916 50.9798 52.4744 51.4722 52.4744C51.9646 52.4744 52.3955 52.5916 52.7648 52.826C53.1365 53.0604 53.4253 53.3894 53.6313 53.8132C53.8396 54.237 53.9438 54.733 53.9438 55.3011C53.9438 55.8646 53.8396 56.357 53.6313 56.7784C53.4253 57.1998 53.1365 57.5277 52.7648 57.7621C52.3955 57.9964 51.9646 58.1136 51.4722 58.1136ZM51.4722 57.3608C51.8463 57.3608 52.154 57.2649 52.3955 57.0732C52.637 56.8814 52.8157 56.6293 52.9317 56.3168C53.0477 56.0043 53.1057 55.6657 53.1057 55.3011C53.1057 54.9366 53.0477 54.5968 52.9317 54.282C52.8157 53.9671 52.637 53.7126 52.3955 53.5185C52.154 53.3243 51.8463 53.2273 51.4722 53.2273C51.0982 53.2273 50.7904 53.3243 50.5489 53.5185C50.3074 53.7126 50.1287 53.9671 50.0127 54.282C49.8967 54.5968 49.8387 54.9366 49.8387 55.3011C49.8387 55.6657 49.8967 56.0043 50.0127 56.3168C50.1287 56.6293 50.3074 56.8814 50.5489 57.0732C50.7904 57.2649 51.0982 57.3608 51.4722 57.3608ZM55.2231 58V52.5455H56.0328V53.3693H56.0896C56.189 53.0994 56.3689 52.8804 56.6294 52.7124C56.8898 52.5443 57.1833 52.4602 57.51 52.4602C57.5716 52.4602 57.6485 52.4614 57.7409 52.4638C57.8332 52.4661 57.903 52.4697 57.9504 52.4744V53.3267C57.922 53.3196 57.8569 53.3089 57.7551 53.2947C57.6556 53.2782 57.5503 53.2699 57.439 53.2699C57.1739 53.2699 56.9371 53.3255 56.7288 53.4368C56.5228 53.5457 56.3595 53.6972 56.2387 53.8913C56.1204 54.0831 56.0612 54.3021 56.0612 54.5483V58H55.2231ZM61.8699 58V50.7273H62.7506V57.2188H66.1313V58H61.8699ZM69.5972 58.1136C69.1048 58.1136 68.6727 57.9964 68.301 57.7621C67.9317 57.5277 67.6429 57.1998 67.4346 56.7784C67.2286 56.357 67.1256 55.8646 67.1256 55.3011C67.1256 54.733 67.2286 54.237 67.4346 53.8132C67.6429 53.3894 67.9317 53.0604 68.301 52.826C68.6727 52.5916 69.1048 52.4744 69.5972 52.4744C70.0896 52.4744 70.5205 52.5916 70.8898 52.826C71.2615 53.0604 71.5503 53.3894 71.7563 53.8132C71.9646 54.237 72.0688 54.733 72.0688 55.3011C72.0688 55.8646 71.9646 56.357 71.7563 56.7784C71.5503 57.1998 71.2615 57.5277 70.8898 57.7621C70.5205 57.9964 70.0896 58.1136 69.5972 58.1136ZM69.5972 57.3608C69.9713 57.3608 70.279 57.2649 70.5205 57.0732C70.762 56.8814 70.9407 56.6293 71.0567 56.3168C71.1727 56.0043 71.2307 55.6657 71.2307 55.3011C71.2307 54.9366 71.1727 54.5968 71.0567 54.282C70.9407 53.9671 70.762 53.7126 70.5205 53.5185C70.279 53.3243 69.9713 53.2273 69.5972 53.2273C69.2232 53.2273 68.9154 53.3243 68.6739 53.5185C68.4324 53.7126 68.2537 53.9671 68.1377 54.282C68.0217 54.5968 67.9637 54.9366 67.9637 55.3011C67.9637 55.6657 68.0217 56.0043 68.1377 56.3168C68.2537 56.6293 68.4324 56.8814 68.6739 57.0732C68.9154 57.2649 69.2232 57.3608 69.5972 57.3608ZM75.5498 60.1591C75.145 60.1591 74.797 60.107 74.5058 60.0028C74.2146 59.901 73.9719 59.7661 73.7778 59.598C73.586 59.4323 73.4333 59.2547 73.3197 59.0653L73.9873 58.5966C74.0631 58.696 74.1589 58.8097 74.2749 58.9375C74.391 59.0677 74.5496 59.1802 74.7508 59.2749C74.9544 59.3719 75.2207 59.4205 75.5498 59.4205C75.9901 59.4205 76.3535 59.3139 76.64 59.1009C76.9265 58.8878 77.0697 58.554 77.0697 58.0994V56.9915H76.9987C76.9371 57.0909 76.8495 57.214 76.7359 57.3608C76.6246 57.5052 76.4636 57.6342 76.2529 57.7479C76.0446 57.8591 75.7629 57.9148 75.4078 57.9148C74.9674 57.9148 74.5721 57.8106 74.2217 57.6023C73.8737 57.3939 73.5979 57.0909 73.3943 56.6932C73.193 56.2955 73.0924 55.8125 73.0924 55.2443C73.0924 54.6856 73.1907 54.1991 73.3872 53.7848C73.5837 53.3681 73.8571 53.0462 74.2075 52.8189C74.5579 52.5893 74.9627 52.4744 75.422 52.4744C75.7771 52.4744 76.0588 52.5336 76.2671 52.652C76.4778 52.768 76.6388 52.9006 76.7501 53.0497C76.8637 53.1965 76.9513 53.3172 77.0129 53.4119H77.0981V52.5455H77.9078V58.1562C77.9078 58.625 77.8012 59.0062 77.5882 59.2997C77.3775 59.5956 77.0934 59.8123 76.7359 59.9496C76.3808 60.0893 75.9854 60.1591 75.5498 60.1591ZM75.5214 57.1619C75.8576 57.1619 76.1417 57.085 76.3737 56.9311C76.6057 56.7772 76.782 56.5559 76.9028 56.267C77.0235 55.9782 77.0839 55.6326 77.0839 55.2301C77.0839 54.8371 77.0247 54.4903 76.9063 54.1896C76.788 53.889 76.6128 53.6534 76.3808 53.483C76.1488 53.3125 75.8623 53.2273 75.5214 53.2273C75.1663 53.2273 74.8704 53.3172 74.6336 53.4972C74.3992 53.6771 74.2229 53.9186 74.1045 54.2216C73.9885 54.5246 73.9305 54.8608 73.9305 55.2301C73.9305 55.6089 73.9897 55.9439 74.108 56.2351C74.2288 56.5239 74.4063 56.7512 74.6407 56.9169C74.8775 57.0803 75.171 57.1619 75.5214 57.1619ZM81.6578 58.1136C81.1653 58.1136 80.7333 57.9964 80.3616 57.7621C79.9923 57.5277 79.7035 57.1998 79.4951 56.7784C79.2892 56.357 79.1862 55.8646 79.1862 55.3011C79.1862 54.733 79.2892 54.237 79.4951 53.8132C79.7035 53.3894 79.9923 53.0604 80.3616 52.826C80.7333 52.5916 81.1653 52.4744 81.6578 52.4744C82.1502 52.4744 82.5811 52.5916 82.9504 52.826C83.3221 53.0604 83.6109 53.3894 83.8169 53.8132C84.0252 54.237 84.1294 54.733 84.1294 55.3011C84.1294 55.8646 84.0252 56.357 83.8169 56.7784C83.6109 57.1998 83.3221 57.5277 82.9504 57.7621C82.5811 57.9964 82.1502 58.1136 81.6578 58.1136ZM81.6578 57.3608C82.0318 57.3608 82.3396 57.2649 82.5811 57.0732C82.8225 56.8814 83.0013 56.6293 83.1173 56.3168C83.2333 56.0043 83.2913 55.6657 83.2913 55.3011C83.2913 54.9366 83.2333 54.5968 83.1173 54.282C83.0013 53.9671 82.8225 53.7126 82.5811 53.5185C82.3396 53.3243 82.0318 53.2273 81.6578 53.2273C81.2837 53.2273 80.9759 53.3243 80.7345 53.5185C80.493 53.7126 80.3142 53.9671 80.1982 54.282C80.0822 54.5968 80.0242 54.9366 80.0242 55.3011C80.0242 55.6657 80.0822 56.0043 80.1982 56.3168C80.3142 56.6293 80.493 56.8814 80.7345 57.0732C80.9759 57.2649 81.2837 57.3608 81.6578 57.3608Z" fill="black"/>
</svg>
