<svg width="1080" height="1080" viewBox="0 0 1080 1080" fill="none" xmlns="http://www.w3.org/2000/svg">
<path d="M951.328 788.906C917.832 755.156 836.705 705.902 797.344 686.053C746.086 660.234 741.867 658.125 701.578 688.057C674.705 708.033 656.839 725.878 625.388 719.17C593.937 712.462 525.593 674.641 465.75 614.988C405.907 555.335 365.892 485.008 359.163 453.663C352.435 422.318 370.575 404.662 390.361 377.726C418.247 339.757 416.138 333.429 392.302 282.171C373.718 242.304 323.03 161.937 289.153 128.608C252.914 92.8124 252.914 99.1405 229.563 108.844C210.553 116.842 192.315 126.565 175.078 137.89C141.328 160.312 122.597 178.938 109.498 206.93C96.3985 234.921 90.5134 300.544 158.161 423.436C225.809 546.328 273.27 609.166 371.503 707.126C469.737 805.085 545.274 857.756 655.699 919.687C792.303 996.194 844.7 981.281 872.775 968.203C900.851 955.125 919.561 936.562 942.026 902.812C953.38 885.604 963.125 867.387 971.136 848.391C980.86 825.124 987.188 825.124 951.328 788.906Z" fill="white" stroke="white" stroke-width="1.6" stroke-miterlimit="10"/>
</svg>
